<svg width="16" height="17" viewBox="0 0 16 17" fill="none" xmlns="http://www.w3.org/2000/svg">
<rect y="0.38208" width="16" height="16" rx="8" fill="#2F7DA8" fill-opacity="0.2"/>
<path d="M3.5 6.88208C3.5 6.33521 3.9375 5.88208 4.5 5.88208L8.5 5.88208C9.04688 5.88208 9.5 6.33521 9.5 6.88208V10.8821C9.5 11.4446 9.04688 11.8821 8.5 11.8821H4.5C3.9375 11.8821 3.5 11.4446 3.5 10.8821L3.5 6.88208ZM12.2344 6.44458C12.3906 6.53833 12.5 6.71021 12.5 6.88208V10.8821C12.5 11.0696 12.3906 11.2415 12.2344 11.3352C12.0625 11.4133 11.875 11.4133 11.7187 11.304L10.2188 10.304L10 10.1633V9.88208V7.88208V7.61646L10.2188 7.47583L11.7188 6.47583C11.875 6.36646 12.0625 6.36646 12.2344 6.44458Z" fill="#2F7DA8"/>
</svg>
