<svg width="17" height="16" viewBox="0 0 17 16" fill="none" xmlns="http://www.w3.org/2000/svg">
<rect x="0.5" width="16" height="16" rx="8" fill="#2F7DA8" fill-opacity="0.2"/>
<path d="M6.5 5C6.5 4.73438 6.71875 4.5 7 4.5C7.26562 4.5 7.5 4.73438 7.5 5V5.5L9.5 5.5V5C9.5 4.73438 9.71875 4.5 10 4.5C10.2656 4.5 10.5 4.73438 10.5 5V5.5H11.25C11.6562 5.5 12 5.84375 12 6.25V7L5 7V6.25C5 5.84375 5.32812 5.5 5.75 5.5H6.5V5ZM12 7.5V11.75C12 12.1719 11.6562 12.5 11.25 12.5H5.75C5.32812 12.5 5 12.1719 5 11.75L5 7.5L12 7.5Z" fill="#2F7DA8"/>
</svg>
