<svg width="64" height="32" viewBox="0 0 64 32" fill="none" xmlns="http://www.w3.org/2000/svg">
<mask id="mask0_1661_47504" style="mask-type:alpha" maskUnits="userSpaceOnUse" x="32" y="0" width="32" height="32">
<rect width="32" height="32" transform="translate(32)" fill="black"/>
</mask>
<g mask="url(#mask0_1661_47504)">
<path d="M53.736 16.7522L49.4503 21.0379C49.1289 21.3862 48.5664 21.3862 48.245 21.0379C47.8968 20.7165 47.8968 20.154 48.245 19.8326L51.0575 16.9933H42.861C42.3789 16.9933 42.0039 16.6183 42.0039 16.1362C42.0039 15.6808 42.3789 15.279 42.861 15.279H51.0575L48.245 12.4665C47.8968 12.1451 47.8968 11.5826 48.245 11.2612C48.5664 10.9129 49.1289 10.9129 49.4503 11.2612L53.736 15.5469C54.0843 15.8683 54.0843 16.4308 53.736 16.7522Z" fill="white"/>
</g>
<mask id="mask1_1661_47504" style="mask-type:alpha" maskUnits="userSpaceOnUse" x="0" y="0" width="32" height="32">
<rect width="32" height="32" fill="black"/>
</mask>
<g mask="url(#mask1_1661_47504)">
<path d="M21.736 16.7522L17.4503 21.0379C17.1289 21.3862 16.5664 21.3862 16.245 21.0379C15.8968 20.7165 15.8968 20.154 16.245 19.8326L19.0575 16.9933H10.861C10.3789 16.9933 10.0039 16.6183 10.0039 16.1362C10.0039 15.6808 10.3789 15.279 10.861 15.279H19.0575L16.245 12.4665C15.8968 12.1451 15.8968 11.5826 16.245 11.2612C16.5664 10.9129 17.1289 10.9129 17.4503 11.2612L21.736 15.5469C22.0843 15.8683 22.0843 16.4308 21.736 16.7522Z" fill="white"/>
</g>
</svg>
