<svg width="76" height="77" viewBox="0 0 76 77" fill="none" xmlns="http://www.w3.org/2000/svg">
<path d="M62.4673 0.185059H13.5337C6.05953 0.185059 0.000488281 6.24411 0.000488281 13.7183V62.6519C0.000488281 70.1261 6.05953 76.1852 13.5337 76.1852H62.4673C69.9415 76.1852 76.0005 70.1261 76.0005 62.6519V13.7183C76.0005 6.24411 69.9415 0.185059 62.4673 0.185059Z" fill="#FF4D4D"/>
<path d="M40.2733 35.1343H35.7749C34.7807 35.1343 33.9748 35.9398 33.9748 36.9335V40.0812C33.9748 41.0748 34.7807 41.8803 35.7749 41.8803H40.2733C41.2675 41.8803 42.0734 41.0748 42.0734 40.0812V36.9335C42.0734 35.9398 41.2675 35.1343 40.2733 35.1343Z" fill="white"/>
<path d="M48.8227 33.3352V29.5147C48.8227 28.5216 48.0163 27.7156 47.0226 27.7156H32.6256C29.6446 27.7156 27.2255 30.1335 27.2255 33.113V43.9048C27.2255 46.8875 29.6446 49.3022 32.6256 49.3022H43.4226C46.4068 49.3022 48.8227 47.3349 48.8227 44.3553V43.6795C48.8227 42.6863 49.629 41.8835 50.6227 41.8835H53.7719C54.7656 41.8835 55.572 42.6863 55.572 43.6795V47.2778C55.572 51.1902 53.0132 54.5029 49.4735 55.6325C48.6322 55.9022 47.7306 56.0482 46.7972 56.0482H29.2478C28.3144 56.0482 27.4192 55.9022 26.5747 55.6325C23.0382 54.5029 20.4762 51.1902 20.4762 47.2809V29.74C20.4762 25.8276 23.0382 22.5149 26.5779 21.3853C26.7906 21.3186 27.0065 21.2583 27.2255 21.2076V19.3545C27.2255 18.2598 28.1144 17.3713 29.2097 17.3713H31.9907C33.0859 17.3713 33.9748 18.2598 33.9748 19.3545V20.9696H42.0734V19.3545C42.0734 18.2598 42.9623 17.3713 44.0575 17.3713H46.8385C47.9338 17.3713 48.8227 18.2598 48.8227 19.3545V21.2076C49.0417 21.2583 49.2576 21.3186 49.4703 21.3853C53.01 22.5117 55.572 25.8244 55.572 29.7369V33.3352C55.572 34.3283 54.7656 35.1343 53.7719 35.1343H50.6227C49.629 35.1343 48.8227 34.3283 48.8227 33.3352Z" fill="white"/>
</svg>
