<svg width="76" height="77" viewBox="0 0 76 77" fill="none" xmlns="http://www.w3.org/2000/svg">
<path d="M62.4668 0.185059H13.5332C6.05904 0.185059 0 6.24409 0 13.7183V62.6517C0 70.1258 6.05904 76.1849 13.5332 76.1849H62.4668C69.941 76.1849 76 70.1258 76 62.6517V13.7183C76 6.24409 69.941 0.185059 62.4668 0.185059Z" fill="#FFB866"/>
<path d="M39.3957 23.7073H36.5997C35.498 23.7073 34.6048 24.6005 34.6048 25.7022V39.8067C34.6048 40.9085 35.498 41.8016 36.5997 41.8016H39.3957C40.4975 41.8016 41.3906 40.9085 41.3906 39.8067V25.7022C41.3906 24.6005 40.4975 23.7073 39.3957 23.7073Z" fill="white"/>
<path d="M55.6421 22.5358V48.0127C55.3739 52.2067 52.0194 55.5581 47.8285 55.8262H28.1894C23.8166 55.5453 20.3567 51.9099 20.3567 47.4669V22.5358C20.3567 21.4346 21.2504 20.5409 22.3516 20.5409H25.1476C26.2488 20.5409 27.1425 21.4346 27.1425 22.5358V43.8538C27.1425 46.72 29.4629 49.0405 32.3291 49.0405H43.6696C46.5327 49.0405 48.8563 46.72 48.8563 43.8538V22.5358C48.8563 21.4346 49.75 20.5409 50.8512 20.5409H53.6472C54.7484 20.5409 55.6421 21.4346 55.6421 22.5358Z" fill="white"/>
</svg>
