<svg width="77" height="77" viewBox="0 0 77 77" fill="none" xmlns="http://www.w3.org/2000/svg">
<path fill-rule="evenodd" clip-rule="evenodd" d="M14.1333 0.185059H63.0669C70.5411 0.185059 76.6001 6.24409 76.6001 13.7183V62.6518C76.6001 70.126 70.5411 76.185 63.0669 76.185H14.1333C6.65914 76.185 0.600098 70.126 0.600098 62.6518V13.7183C0.600098 6.24409 6.65914 0.185059 14.1333 0.185059ZM54.2479 20.5424H36.5238C35.4221 20.5424 34.529 21.4355 34.529 22.5372V25.3332C34.529 26.435 35.4221 27.3281 36.5238 27.3281H54.2479C55.3497 27.3281 56.2428 26.435 56.2428 25.3332V22.5372C56.2428 21.4355 55.3497 20.5424 54.2479 20.5424ZM36.5238 34.7937H51.0816C52.1834 34.7937 53.0765 35.6869 53.0765 36.7886V39.5846C53.0765 40.6864 52.1834 41.5795 51.0816 41.5795H36.5238C35.4221 41.5795 34.529 40.6864 34.529 39.5846V36.7886C34.529 35.6869 35.4221 34.7937 36.5238 34.7937ZM56.2428 53.8328V51.0368C56.2428 49.9356 55.3491 49.0419 54.2479 49.0419H32.9299C30.0636 49.0419 27.7432 46.7215 27.7432 43.8553V22.5372C27.7432 21.4361 26.8495 20.5424 25.7483 20.5424H22.9523C21.8511 20.5424 20.9574 21.4361 20.9574 22.5372V48.0142C21.2255 52.2082 24.5769 55.5596 28.7709 55.8277H54.2479C55.3491 55.8277 56.2428 54.934 56.2428 53.8328Z" fill="#316BFF"/>
<path d="M36.5238 20.5424H54.2479C55.3497 20.5424 56.2428 21.4355 56.2428 22.5372V25.3332C56.2428 26.435 55.3497 27.3281 54.2479 27.3281H36.5238C35.4221 27.3281 34.529 26.435 34.529 25.3332V22.5372C34.529 21.4355 35.4221 20.5424 36.5238 20.5424Z" fill="white"/>
<path d="M36.5238 34.7937H51.0816C52.1834 34.7937 53.0765 35.6869 53.0765 36.7886V39.5846C53.0765 40.6864 52.1834 41.5795 51.0816 41.5795H36.5238C35.4221 41.5795 34.529 40.6864 34.529 39.5846V36.7886C34.529 35.6869 35.4221 34.7937 36.5238 34.7937Z" fill="white"/>
<path d="M56.2428 51.0368V53.8328C56.2428 54.934 55.3491 55.8277 54.2479 55.8277H28.7709C24.5769 55.5596 21.2255 52.2082 20.9574 48.0142V22.5372C20.9574 21.4361 21.8511 20.5424 22.9523 20.5424H25.7483C26.8495 20.5424 27.7432 21.4361 27.7432 22.5372V43.8553C27.7432 46.7215 30.0636 49.0419 32.9299 49.0419H54.2479C55.3491 49.0419 56.2428 49.9356 56.2428 51.0368Z" fill="white"/>
</svg>
