<svg width="16" height="17" viewBox="0 0 16 17" fill="none" xmlns="http://www.w3.org/2000/svg">
<rect y="0.166016" width="16" height="16" rx="8" fill="#5CC4FD" fill-opacity="0.2"/>
<path d="M5.5 6.16602C5.5 5.61914 5.9375 5.16602 6.5 5.16602L11 5.16602C11.5469 5.16602 12 5.61914 12 6.16602V11.166C12 11.7285 11.5469 12.166 11 12.166H5.25C4.54687 12.166 4 11.6191 4 10.916L4 6.66602C4 6.40039 4.21875 6.16602 4.5 6.16602C4.76562 6.16602 5 6.40039 5 6.66602L5 10.916C5 11.0566 5.10937 11.166 5.25 11.166C5.375 11.166 5.5 11.0566 5.5 10.916L5.5 6.16602ZM6.5 6.54102V7.79102C6.5 8.00977 6.65625 8.16602 6.875 8.16602H8.625C8.82812 8.16602 9 8.00977 9 7.79102V6.54102C9 6.33789 8.82812 6.16602 8.625 6.16602L6.875 6.16602C6.65625 6.16602 6.5 6.33789 6.5 6.54102ZM9.75 6.41602C9.75 6.55664 9.85938 6.66602 10 6.66602H10.75C10.875 6.66602 11 6.55664 11 6.41602C11 6.29102 10.875 6.16602 10.75 6.16602H10C9.85938 6.16602 9.75 6.29102 9.75 6.41602ZM9.75 7.91602C9.75 8.05664 9.85938 8.16602 10 8.16602H10.75C10.875 8.16602 11 8.05664 11 7.91602C11 7.79102 10.875 7.66602 10.75 7.66602H10C9.85938 7.66602 9.75 7.79102 9.75 7.91602ZM6.5 9.41602C6.5 9.55664 6.60937 9.66602 6.75 9.66602H10.75C10.875 9.66602 11 9.55664 11 9.41602C11 9.29102 10.875 9.16602 10.75 9.16602H6.75C6.60938 9.16602 6.5 9.29102 6.5 9.41602ZM6.5 10.916C6.5 11.0566 6.60937 11.166 6.75 11.166H10.75C10.875 11.166 11 11.0566 11 10.916C11 10.791 10.875 10.666 10.75 10.666H6.75C6.60937 10.666 6.5 10.791 6.5 10.916Z" fill="#A6DFFF"/>
</svg>
