<svg width="1200" height="900" viewBox="0 0 1200 900" fill="none" xmlns="http://www.w3.org/2000/svg">
  <rect width="1200" height="900" rx="48" fill="#111111"/>
  <rect x="74" y="78" width="1052" height="744" rx="34" fill="#F8F5EE"/>
  <rect x="124" y="132" width="952" height="92" rx="22" fill="#FFFFFF" stroke="#D9D2C5"/>
  <circle cx="177" cy="178" r="20" fill="#16A085"/>
  <rect x="222" y="162" width="277" height="18" rx="9" fill="#151515"/>
  <rect x="222" y="190" width="184" height="12" rx="6" fill="#847D72"/>
  <rect x="124" y="272" width="414" height="454" rx="28" fill="#FFFFFF" stroke="#D9D2C5"/>
  <rect x="166" y="328" width="180" height="18" rx="9" fill="#151515"/>
  <rect x="166" y="380" width="312" height="13" rx="6.5" fill="#847D72"/>
  <rect x="166" y="415" width="264" height="13" rx="6.5" fill="#847D72"/>
  <rect x="166" y="450" width="292" height="13" rx="6.5" fill="#847D72"/>
  <rect x="166" y="516" width="108" height="108" rx="54" fill="#16A085"/>
  <path d="M220 560v22M199 571h42" stroke="#F8F5EE" stroke-width="14" stroke-linecap="round"/>
  <rect x="586" y="272" width="490" height="454" rx="28" fill="#151515"/>
  <rect x="636" y="336" width="110" height="220" rx="55" fill="#F8F5EE"/>
  <rect x="779" y="382" width="34" height="128" rx="17" fill="#16A085"/>
  <rect x="839" y="342" width="34" height="208" rx="17" fill="#F8F5EE"/>
  <rect x="899" y="402" width="34" height="88" rx="17" fill="#B45309"/>
  <rect x="959" y="368" width="34" height="156" rx="17" fill="#F8F5EE"/>
  <rect x="636" y="620" width="244" height="18" rx="9" fill="#F8F5EE"/>
  <rect x="636" y="656" width="310" height="12" rx="6" fill="#C5BBAA"/>
  <text x="124" y="815" fill="#F8F5EE" font-family="Arial, sans-serif" font-size="34" font-weight="700">Vocalype</text>
</svg>
